<svg width="251" height="70" viewBox="0 0 251 70" fill="none" xmlns="http://www.w3.org/2000/svg">
<path d="M62.7514 25.8369L63.8817 21.3537C63.9075 21.1075 64.0395 20.8797 64.2501 20.7178C64.4608 20.5559 64.7337 20.4725 65.012 20.4849C65.615 20.4849 65.9174 20.8121 65.8418 21.3537L64.3335 27.5108H76.3981L77.8308 21.4879C79.4147 15.0642 75.1922 10.7822 67.3501 10.7822C59.508 10.7822 53.3235 15.0642 51.7415 21.4879L50.3844 27.1753C47.8195 37.881 61.7704 39.0198 60.7102 43.3737L59.4287 48.5278C59.3707 48.8069 59.2046 49.0592 58.9591 49.2411C58.7137 49.4231 58.4043 49.5232 58.0845 49.5242C57.4059 49.5242 57.0279 49.1234 57.1791 48.5212L58.8386 41.695H46.7648L45.1053 48.5212C43.597 54.9433 47.8195 59.2269 55.7372 59.2269C63.6549 59.2269 69.9887 54.9433 71.497 48.5212L73.0809 42.0304C75.6439 31.3247 61.7723 30.1876 62.7514 25.8369Z" fill="#3D6124"/>
<path d="M162.964 37.3433L166.057 26.3038L167.038 22.2886L166.057 26.3038L162.964 37.3433L157.16 39.0826L157.121 39.2167L157.16 39.0826L162.964 37.3433Z" fill="#3D6124"/>
<path d="M157.07 39.3539L157.109 39.2197L157.07 39.3539Z" fill="#3D6124"/>
<path d="M167.036 22.2886H168.09L167.109 26.3038L164.471 39.3509L167.109 26.3038L168.09 22.2886H167.036Z" fill="#3D6124"/>
<path d="M100.566 21.2906L102.904 11.5879H81.7899L79.4519 21.2906H83.9768L75.0781 58.4258H87.1428L96.0414 21.2906H100.566Z" fill="#3D6124"/>
<path d="M106.641 11.5879L90.2031 58.4258H102.343L105.284 48.0539H108.15L106.122 58.4258H118.865L124.889 11.5879H106.641ZM112.448 26.3137L109.807 39.3608H102.419L102.495 39.0925L108.301 37.3532L111.391 26.3088L112.372 22.2936H113.427L112.448 26.3137Z" fill="#3D6124"/>
<path d="M155.777 21.6244C157.21 15.6015 153.212 11.5879 145.748 11.5879H131.792L120.562 58.4258H134.513C141.978 58.4258 147.935 54.4106 149.368 48.3894L155.777 21.6244ZM143.561 22.2936L137.454 47.7201C137.397 48.0025 137.23 48.2579 136.981 48.4414C136.732 48.6248 136.419 48.7246 136.096 48.7231H129.688L129.762 48.4564L135.417 46.7172L141.526 21.2906H142.656C143.335 21.2906 143.713 21.6914 143.561 22.2936Z" fill="#3D6124"/>
<path d="M164.182 11.5879L147.744 58.4258H159.884L162.825 48.0539H165.696L163.668 58.4258H176.391L182.43 11.5879H164.182ZM169.989 26.3137L167.356 39.3559H159.958L159.997 39.2217L160.036 39.0875L165.84 37.3483L168.932 26.3088L169.913 22.2936H170.968L169.989 26.3137Z" fill="#3D6124"/>
<path d="M213.762 11.5879L206.071 38.7538L203.958 47.7201H202.904L205.015 38.7538L210.445 11.5879H189.331L178.096 58.4258H190.16L197.551 27.6456L198.454 23.632H199.511L198.605 27.6456L193.177 58.4258H208.107L217.457 27.6456L218.361 23.632H219.417L218.512 27.6456L211.124 58.4258H223.188L234.423 11.5879H213.762Z" fill="#3D6124"/>
<path d="M237.518 11.5879L226.283 58.4258H238.348L249.585 11.5879H237.518Z" fill="#3D6124"/>
<path d="M59.0441 41.8238C58.7721 42.8763 58.2408 43.8623 57.4884 44.711C56.736 45.5597 55.7812 46.25 54.6925 46.7324L2.28884 69.9387C2.16822 69.993 2.02994 70.008 1.89814 69.981C1.76634 69.9541 1.6494 69.8869 1.56772 69.7912C1.48604 69.6956 1.44482 69.5775 1.45125 69.4576C1.45768 69.3377 1.51136 69.2237 1.60291 69.1353C10.8224 60.1198 18.718 52.3201 27.9098 43.3226C28.1869 43.1266 28.3964 42.8655 28.5145 42.569C28.6325 42.2725 28.6544 41.9526 28.5775 41.6456C28.5006 41.3387 28.3281 41.057 28.0797 40.8328C27.8312 40.6086 27.5168 40.4508 27.1723 40.3774C19.1624 37.7284 12.8194 35.6161 4.76704 32.9523C3.83555 32.651 2.98531 32.1801 2.27086 31.5701C1.55641 30.9601 0.993513 30.2243 0.618267 29.41C-0.173451 27.6977 -0.205928 25.783 0.527357 24.0504C1.26064 22.3178 2.7054 20.8954 4.57159 20.0689L49.8412 0.0548564C49.9583 0.00252051 50.0921 -0.0129551 50.2205 0.0109643C50.3488 0.0348838 50.4643 0.0967804 50.5478 0.186516C50.6314 0.276251 50.6781 0.388506 50.6804 0.504893C50.6826 0.62128 50.6403 0.734901 50.5603 0.827144C43.653 8.81672 37.9535 15.553 31.0647 23.5245C30.8081 23.731 30.6203 23.9961 30.5218 24.2908C30.4233 24.5855 30.4179 24.8986 30.5062 25.1958C30.5945 25.4931 30.773 25.7631 31.0224 25.9765C31.2717 26.1899 31.5823 26.3384 31.9203 26.4059C39.6905 28.9371 45.9339 30.9349 53.7447 33.4792C57.5763 34.7309 59.9605 38.2847 59.0441 41.8238Z" fill="#C7E500"/>
</svg>
